# xmcd
#
# Track frame offsets:
#	150
#	15260
#	33050
#	52573
#	66025
#	83485
#
# Disc length: 1353 seconds
#
# Revision: 0
# Processed by: cddbd v1.5.1PL0 Copyright (c) Steve Scherf et al.
# Submitted via: dBpowerAMP V4.0
#
DISCID=2c054706
DTITLE=Steven Keene - Steven Keene
DYEAR=1994
DGENRE=Folk/Rock
TTITLE0=Far Better Friend Than Lover
TTITLE1=Until You
TTITLE2=Before You Save The World, Save Yourself
TTITLE3=Babe You're Not The One
TTITLE4=One Man's Love
TTITLE5=Far Away
EXTD=
EXTT0=
EXTT1=
EXTT2=
EXTT3=
EXTT4=
EXTT5=
PLAYORDER=
